<?xml version="1.0" encoding="utf-8"?>
<!-- Svg Vector Icons : http://www.onlinewebfonts.com/icon -->
<!DOCTYPE svg PUBLIC "-//W3C//DTD SVG 1.1//EN" "http://www.w3.org/Graphics/SVG/1.1/DTD/svg11.dtd">
<svg version="1.1" xmlns="http://www.w3.org/2000/svg" xmlns:xlink="http://www.w3.org/1999/xlink" x="0px" y="0px" viewBox="0 0 1000 1000" enable-background="new 0 0 1000 1000" xml:space="preserve" width="100px" height="100px">
<metadata> Svg Vector Icons : http://www.onlinewebfonts.com/icon </metadata>
<g><path d="M505.2,990c-2.9,0-5.9,0-8.8,0c-149.7-6.1-260.5-61.9-339.3-140.8C78.3,770.5,18.8,664.1,10,517.4c0-12.1,0-24.3,0-36.4c1-0.3,1.5-1.1,1.3-2.5c5.5-112.7,42.1-199.4,94.3-270.2C156.9,138.5,226.8,82,309.1,47.4C397.9,10.1,517.4-2,619.5,23.5c94.6,23.6,170.7,70.4,231.3,133.2C910.6,218.8,956.4,295.1,979,393c24.2,105,6.3,225.5-32.7,309.2C870.3,865.3,730.2,976.4,505.2,990z M755.3,708.5c9.1,7,38.4,11.4,37.7,26.4c-0.4,9.5-8.2,10.1-15.1,13.8c-19.7,10.6-41.1,13.3-62.8,26.4c-20.1,12-29.2,30.7-52.8,36.4c-60.2,14.6-40-52.6-40.2-91.7c-0.1-15-6.1-31.3-7.5-44c-2.5-22.6,3-42,13.8-41.5c13.7,0.6,15.5,29.6,28.9,36.4c34.6,17.6,52.4-15.9,66.6-30.2c5.8-5.8,12.2-8.7,15.1-13.8c17.8-31.1-3-87.2-13.8-114.4c-10.2-25.5-22.4-47.5-37.7-66.6c-31.4-39.2-61.3-80-66.6-143.3c-1.2-14.4,1.1-25.7,0-40.2c-4.4-61.1-44.4-105.8-103.1-110.6c-48.8-4-80.3,13.3-95.5,40.2c-17.4,30.9-12.2,79.9-10.1,123.2c1,20.6,6.2,43.8,3.8,60.3c-2.5,16.7-20.1,36.5-30.2,50.3c-11,15-25.2,31.7-33.9,47.8c-8.6,15.9-16.2,37.4-23.9,57.8c-12.7,33.8-32.9,50.6-25.1,91.7c35.4-13.7,59.5,28.2,77.9,55.3c25.3,37.2,49,62.2,50.3,113.1c-19.8,42.1-76.3,11.7-116.9,2.5c-18.8-4.3-73.1-9.3-77.9-22.6c-4.2-11.6,11-25.8,11.3-39c0.4-19.4-15.4-26.7-11.3-47.8c23.7-6.5,53.5-1.1,61.6-23.9c2.2-6.2,1.5-16.4,0-26.4c-1.9,39.2-42.6,31.2-69.1,44c-5.6,21.2,7.1,37,5,55.3c-1.6,14.4-13.9,26.2-10.1,44c17.9,22,58.7,20,88,27.7c24,6.3,63.2,28.1,90.5,25.1c17.9-1.9,26.5-15,41.5-22.6c27.3-13.9,70.9-12.1,109.3-11.3c11.7,0.2,28-1,37.7,2.5c13.9,5,14.2,20.9,26.4,27.6c9.8,5.4,39.7,8,54,2.5c10.8-4.1,20.6-16.6,31.4-25.1c10.5-8.3,21.7-17.2,33.9-23.9c18.1-9.9,67.2-23.2,65.4-49c-1.1-15.7-20.4-19-33.9-30.2c-15.8-13-18.2-27.6-21.4-52.8C732.8,666.3,738.7,695.7,755.3,708.5z"/><path d="M569.3,203.2c-9,2.4-17.3,5.3-23.9,10.1c0.9-4.5,3.2-17.5,7.5-22.6C559.3,194,565.3,197.6,569.3,203.2z"/><path d="M537.9,279.9c6.5-3.6,11.7,5,11.3,12.6C543.9,289.8,545,280.7,537.9,279.9z"/><path d="M449.9,281.2c7.7-1.9,10.5,13.3,5,16.3C456.8,288.4,452.6,285.6,449.9,281.2z"/><path d="M593.2,355.3c6.1,9.3,30.1,10.1,21.4,26.4C600.8,380.3,590.6,368.9,593.2,355.3z"/><path d="M370.7,476c5.4,4.5-2.7,16.3-7.5,18.9C361.4,489.3,370.5,483.8,370.7,476z"/><path d="M674.8,595.4c6.9,4.4,16.5,6.2,20.1,13.8c-17.7-12.3-62-11.4-61.6,16.3c-39.9,2.4-26.8,47-23.9,85.5c2.3,30.3-6.7,59.2-12.6,76.7c-10.9-5.8-2.8-18.4,0-27.6c4.7-15.8,10.3-33.3,1.3-47.8c-10.7,2.6-12.1,12.9-18.9,20.1c-19.8,21.3-80.4,37.2-113.1,20.1c-6.6-3.5-14.2-16.4-23.9-6.3c7.1,11.9,23.8,39.4,6.3,46.5c1.8-29.8-11.9-44.2-23.9-60.3c14.7-4.4,26.6-14.9,21.4-32.7c-3.7-12.7-31.9-30.9-47.8-44c-17.7-14.6-38.2-29.6-49-41.5c-11.3-12.4-15.2-43.7-6.3-67.9c-1.9,24.1-1.5,58.7,20.1,66.6c12.3-5.8,6.1-32.8,7.5-50.3c3.2-39.6,23-67.9,41.5-91.7c-14.7-37.7,20.1-55.2,21.4-89.2c3.7-2.6,6.8,3.8,8.8,6.3c6.8,8.2,16.7,28.7,30.2,30.2c14,1.5,31.8-14.1,44-22.6c14.6-10.2,29.1-16.6,39-26.4c-8.9-11.7-21,2-31.4,7.5c-13.9,7.4-39.6,20.5-59.1,11.3c-4.9-2.3-11.9-9.9-10.1-12.6c25.4,7.8,46-3.4,67.9-12.6c12.9-5.4,39.6-7.8,32.7-23.9c-20,10.9-70.2,39.9-101.8,25.1c-2.7-1.3-23.3-19.6-23.9-23.9c-1.9-15.1,33.1-25.2,36.4-37.7c8.6-37.8-40.2-39.9-30.2-3.8c2.5,8.9,9.1,9.7,10.1,16.3c-12.1,6.2-16.4-15.1-16.3-27.6c0.1-16.4,7.4-35.4,21.4-35.2c19,0.3,22.1,25.7,22.6,47.8c9.5,2.7,24.6-0.3,31.4,5c-1.2-18.2-2.6-33.4,5-44c24.6-33.9,76.6,6.5,56.6,52.8c-3.1,1.1-9.7,2.5-12.6,0c7.6-20.5-2-51-25.1-42.7c-10.6,3.8-14.7,20.4-11.3,36.4c13,11.7,34.7,14.8,50.3,23.9c1.9,17.4-8.2,30.7-2.5,47.8c3,9,11.7,16.2,17.6,26.4c9.4,16.4,11.4,37.7,17.6,51.5c6.7,15,18.1,24.8,23.9,42.7c7.4,22.8,7.4,47.2,10.1,79.2c1.3,16.3,10.3,30.6,28.9,18.9c2.6-1.7,6.3-5.1,7.5-7.5c23-45.1-21.8-116.7-35.2-137C668.3,479.5,691.3,540.2,674.8,595.4z M461.2,310.1c0,2.1,0,4.2,0,6.3c5.8-1.3,7.7-6.5,11.3-10.1C467.6,306.4,464.7,308.5,461.2,310.1z M493.9,307.6c3.1,2.9,10,6.9,13.8,5C509.2,304.5,498.6,305.7,493.9,307.6z"/></g>
</svg>
