<?xml version="1.0" encoding="utf-8"?>
<!-- Generator: Adobe Illustrator 24.1.1, SVG Export Plug-In . SVG Version: 6.00 Build 0)  -->
<svg version="1.1" id="Layer_1" xmlns="http://www.w3.org/2000/svg" xmlns:xlink="http://www.w3.org/1999/xlink" x="0px" y="0px"
	 viewBox="0 0 512 512" style="enable-background:new 0 0 512 512;" xml:space="preserve" width="75px" height="75px">
<g>
	<path d="M256,0c141.3,0,256,114.8,256,256S397.3,512,256,512S0,397.3,0,256S114.8,0,256,0z M325.9,377.2
		c-16.3,9.4-21.9,30.3-12.5,46.7c9.4,16.3,30.3,22,46.8,12.5c16.3-9.4,21.9-30.3,12.4-46.7C363.2,373.3,342.3,367.7,325.9,377.2z
		 M256,355.8c-15,0-29.3-3.3-42.1-9.3l-23.7,42.5c19.9,9.8,42.3,15.4,65.8,15.4c13.7,0,27.1-1.9,39.7-5.5
		c2.3-13.7,10.3-26.3,23.3-33.8c13-7.5,28.1-8.3,41-3.3c25.3-24.8,41.7-58.6,44.2-96.3l-48.8-0.7C350.9,315.8,308.2,355.8,256,355.8
		z M156.2,256c0-33.7,16.8-63.6,42.4-81.7l-24.9-41.8c-30,19.8-52.2,50.5-61.5,86c10.8,8.7,17.8,22.1,17.8,37.2
		c0,15-6.9,28.2-17.8,37.1c9.3,35.5,31.5,66.3,61.5,86.1l24.9-41.9C172.9,319.3,156.2,289.6,156.2,256z M81.9,221.8
		c-18.9,0-34.2,15.2-34.2,34.2s15.3,34.2,34.2,34.2c18.9,0,34.2-15.2,34.2-34.2S100.8,221.8,81.9,221.8z M256,156.2
		c52.2,0,94.9,40,99.4,91l48.8-0.8c-2.4-37.7-18.9-71.5-44.2-96.3c-13,4.9-28,4.2-41-3.3c-12.9-7.6-21.1-20.2-23.3-34
		c-12.7-3.4-25.9-5.3-39.7-5.3c-23.7,0-46,5.6-65.8,15.4l23.7,42.5C226.8,159.5,241,156.2,256,156.2L256,156.2z M325.9,134.8
		c16.3,9.4,37.3,3.8,46.8-12.5c9.4-16.3,3.8-37.3-12.6-46.8c-16.3-9.3-37.2-3.8-46.7,12.6C304,104.5,309.6,125.4,325.9,134.8z"/>
</g>
</svg>
